<?xml version="1.0" encoding="utf-8"?>
<!-- Generator: Adobe Illustrator 25.2.2, SVG Export Plug-In . SVG Version: 6.00 Build 0)  -->
<svg version="1.1" id="Capa_1" xmlns="http://www.w3.org/2000/svg" xmlns:xlink="http://www.w3.org/1999/xlink" x="0px" y="0px"
	 viewBox="0 0 512 512" style="enable-background:new 0 0 512 512;" xml:space="preserve">
<style type="text/css">
	.st0{fill:url(#SVGID_1_);}
	.st1{fill:url(#SVGID_2_);}
	.st2{fill:url(#SVGID_3_);}
	.st3{fill:url(#SVGID_4_);}
	.st4{fill:url(#SVGID_5_);}
</style>
<g>
	<linearGradient id="SVGID_1_" gradientUnits="userSpaceOnUse" x1="379.1357" y1="134.2291" x2="116.8748" y2="424.2294">
		<stop  offset="0" style="stop-color:#7BFD6B"/>
		<stop  offset="1" style="stop-color:#0C836F"/>
	</linearGradient>
	<path class="st0" d="M444,70.5c4.1,0,7.5-3.4,7.5-7.5V29.4c0-16.2-13.2-29.4-29.4-29.4H132.2C92.7,0,60.5,32.2,60.5,71.8v366
		c0,40.9,33.3,74.2,74.2,74.2H341c4.1,0,7.5-3.4,7.5-7.5s-3.4-7.5-7.5-7.5H134.8c-32.7,0-59.2-26.6-59.2-59.2s26.6-59.2,59.2-59.2
		h301.8v10c0,5.5-4.5,10-10,10H134.8c-21.6,0-39.2,17.6-39.2,39.2s17.6,39.2,39.2,39.2h291.8c5.5,0,10,4.5,10,10s-4.5,10-10,10
		h-50.8c-4.1,0-7.5,3.4-7.5,7.5s3.4,7.5,7.5,7.5h50.8c13.8,0,25-11.2,25-25s-11.2-25-25-25h-13.3v-48.5h13.3c13.8,0,25-11.2,25-25
		V97.3c0-4.1-3.4-7.5-7.5-7.5s-7.5,3.4-7.5,7.5v266.2H152.2v-58.9c0-4.1-3.4-7.5-7.5-7.5s-7.5,3.4-7.5,7.5v58.9h-2.5
		c-24.2,0-45.7,11.6-59.2,29.5V71.8C75.5,40.5,101,15,132.2,15h5v254.3c0,4.1,3.4,7.5,7.5,7.5s7.5-3.4,7.5-7.5V15h269.8
		c7.9,0,14.4,6.5,14.4,14.4V63C436.5,67.1,439.9,70.5,444,70.5L444,70.5z M398.2,462H134.8c-13.4,0-24.2-10.9-24.2-24.2
		s10.9-24.2,24.2-24.2h263.4V462z"/>
	<linearGradient id="SVGID_2_" gradientUnits="userSpaceOnUse" x1="349.8405" y1="91.6404" x2="208.651" y2="239.3493">
		<stop  offset="0" style="stop-color:#7BFD6B"/>
		<stop  offset="1" style="stop-color:#0C836F"/>
	</linearGradient>
	<path class="st1" d="M396.5,186.6v-74c0-17.9-14.6-32.5-32.5-32.5H224.7c-17.9,0-32.5,14.6-32.5,32.5v74
		c0,17.9,14.6,32.5,32.5,32.5H364C382,219.2,396.5,204.6,396.5,186.6z M381.5,186.6c0,9.7-7.9,17.5-17.5,17.5H224.7
		c-9.7,0-17.5-7.9-17.5-17.5v-74c0-9.7,7.9-17.5,17.5-17.5H364c9.7,0,17.5,7.9,17.5,17.5V186.6z"/>
	<linearGradient id="SVGID_3_" gradientUnits="userSpaceOnUse" x1="344.9182" y1="130.8119" x2="231.6722" y2="130.1131">
		<stop  offset="0" style="stop-color:#7BFD6B"/>
		<stop  offset="7.220984e-03" style="stop-color:#77F96B"/>
		<stop  offset="6.732243e-02" style="stop-color:#5AD96C"/>
		<stop  offset="0.1347" style="stop-color:#42BE6D"/>
		<stop  offset="0.2115" style="stop-color:#2EA86E"/>
		<stop  offset="0.3012" style="stop-color:#1F976E"/>
		<stop  offset="0.4122" style="stop-color:#148C6F"/>
		<stop  offset="0.5679" style="stop-color:#0E856F"/>
		<stop  offset="1" style="stop-color:#0C836F"/>
	</linearGradient>
	<path class="st2" d="M343.5,123h-98.2c-4.1,0-7.5,3.4-7.5,7.5s3.4,7.5,7.5,7.5h98.2c4.1,0,7.5-3.4,7.5-7.5S347.6,123,343.5,123z"/>
	<linearGradient id="SVGID_4_" gradientUnits="userSpaceOnUse" x1="326.6767" y1="165.4539" x2="252.4268" y2="165.5598">
		<stop  offset="0" style="stop-color:#7BFD6B"/>
		<stop  offset="0.7156" style="stop-color:#0C836F"/>
	</linearGradient>
	<path class="st3" d="M324,158h-59.2c-4.1,0-7.5,3.4-7.5,7.5s3.4,7.5,7.5,7.5H324c4.1,0,7.5-3.4,7.5-7.5S328.1,158,324,158z"/>
	<g>
		<g>
			<linearGradient id="SVGID_5_" gradientUnits="userSpaceOnUse" x1="345.1885" y1="203.1742" x2="210.7719" y2="403.2179">
				<stop  offset="0" style="stop-color:#7BFD6B"/>
				<stop  offset="1" style="stop-color:#0C836F"/>
			</linearGradient>
			<path class="st4" d="M236,323.2c-5.5,0.2-11-0.8-16.5-2c-5.4-1.2-10.6-2.9-15.6-5.3c-4.9-2.4-9.5-5.3-13.7-8.8
				c-4.5-3.7-8.5-8-11.5-13c-3.1-5.1-4.8-10.6-4.8-16.6c0.1-6.1,2.4-11.1,6.8-15.3c4-3.8,8.8-6,14-7.6c4.7-1.4,9.5-2,14.4-2.3
				c7.2-0.4,14.4,0.1,21.5,1.2c10.4,1.6,20.4,4.3,30.1,8.4c3.6,1.5,7.1,3,10.4,5.1c2.7,1.6,4.9,3.7,6.1,6.7c0.4,0.9,0.7,1.8,0.8,2.8
				c0.3,2.6,1.6,2.7,3.5,2.4c4.5-0.7,9-1.1,13.5-1c4.1,0.1,8.3,0.4,12.4,1c0.6,0.1,1.2,0.1,1.7,0c0.8,0,1.3-0.5,1.5-1.2
				c0.2-0.6,0.3-1.3,0.5-2c0.9-3.8,3.1-6.6,6.5-8.6c7.1-4.1,14.6-7.1,22.4-9.3c6.3-1.8,12.7-3.3,19.1-4.5c7.2-1.3,14.4-1.6,21.6-1.1
				c5.7,0.4,11.2,1.6,16.4,3.8c5.2,2.2,9.8,5.3,13.4,9.7c2.8,3.5,4.2,7.5,4.4,12c0.2,5-1.6,9.4-3.8,13.6
				c-3.1,5.7-7.3,10.5-12.1,14.7c-8,6.9-17.2,11.7-27.4,14.6c-7.1,2-14.4,2.6-21.7,2.4c-6.2-0.2-12.2-1.4-17.7-4.5
				c-6-3.4-10.6-8.2-14.1-14.1c-3.2-5.4-5.2-11.2-6.7-17.2c-0.1-0.5-0.3-1-0.4-1.5c-0.7-2-2.1-3.1-4.2-3.3c-1.7-0.2-3.5-0.4-5.2-0.5
				c-3.2-0.2-6.4-0.4-9.7-0.3c-3.2,0.1-6.3,0.2-9.5,0.7c-3.1,0.5-4.3,1.7-4.8,4.7c-1.1,6.3-3.6,12-7,17.4c-2,3.3-4.1,6.5-6.9,9.1
				c-4.4,4.3-9.7,6.9-15.7,8.2C244.1,323,240.1,323.3,236,323.2z"/>
		</g>
	</g>
</g>
</svg>
