<?xml version="1.0" encoding="utf-8"?>
<!-- Generator: Adobe Illustrator 25.2.2, SVG Export Plug-In . SVG Version: 6.00 Build 0)  -->
<svg version="1.1" id="Capa_1" xmlns="http://www.w3.org/2000/svg" xmlns:xlink="http://www.w3.org/1999/xlink" x="0px" y="0px"
	 viewBox="0 0 512 512" style="enable-background:new 0 0 512 512;" xml:space="preserve">
<style type="text/css">
	.st0{fill:url(#SVGID_1_);}
</style>
<linearGradient id="SVGID_1_" gradientUnits="userSpaceOnUse" x1="415.6776" y1="89.7785" x2="94.0662" y2="488.1628">
	<stop  offset="0" style="stop-color:#7BFD6B"/>
	<stop  offset="1" style="stop-color:#0C836F"/>
</linearGradient>
<path class="st0" d="M443.5,118c-0.8-1.2-1.6-2.1-2.8-3c-9-6.6-54.3-38.7-112.4-45h-0.7c-1.2,0-2.1,0.6-2.7,1.6l-3,6.2h-0.1
	c-0.1,0.5-0.2,0.9-0.2,1.4c0,1.2,0.8,2.3,2,2.7c0,0,0.5,0.1,0.7,0.2c49.7,11.9,79.8,33.6,106.5,57.5C383.5,115.4,337.1,93,256,93
	s-127.5,22.6-174.7,46.5C108,115.7,138.1,93.9,187.8,82c0.1-0.1,0.7-0.2,0.7-0.2c1.2-0.3,2-1.5,2-2.7c0-0.5-0.1-0.9-0.3-1.4l-3-6.2
	c-0.6-1-1.5-1.6-2.7-1.6h-0.7c-58.1,6.3-103.4,38.4-112.4,45c-1.2,0.9-2,1.9-2.8,3C60.4,130.9,9.8,215.6,0,369.7
	c-0.1,1.6,0.5,3.4,1.6,4.7C55.1,434.1,131.7,441.2,148,442c2,0.1,3.8-0.7,5-2.3l14.9-19.9c1.2-1.5,0.6-3.7-1.3-4.4
	c-31.4-11.4-66.4-31.4-96.9-66.3c37.7,28.5,94.6,58.1,186.3,58.1s148.6-29.6,186.3-58.1c-30.5,34.9-65.5,54.9-96.9,66.3
	c-1.9,0.7-2.4,2.9-1.3,4.4l14.9,19.9c1.2,1.6,3,2.4,5,2.3c16.3-0.8,93-7.9,146.4-67.7c1.2-1.3,1.7-3,1.6-4.7
	C502.2,215.6,451.6,130.9,443.5,118z M436,261.8c-4.7,8.7-11.2,16.2-18.7,22.7c-12.3,10.7-26.5,18.2-42.2,22.6
	c-10.9,3.1-22.1,4.1-33.6,3.7c-9.5-0.2-18.7-2.2-27.2-7c-9.3-5.2-16.4-12.8-21.8-21.9c-4.9-8.4-8-17.3-10.2-26.6
	c-0.2-0.8-0.5-1.5-0.7-2.3c-1-3-3.3-4.7-6.5-5.1c-2.7-0.2-5.2-0.6-8.1-0.7c-4.9-0.2-9.9-0.7-14.9-0.5c-4.8,0.1-9.8,0.3-14.5,1
	c-4.8,0.8-6.6,2.6-7.4,7.3c-1.6,9.8-5.6,18.5-10.7,26.9c-3,5-6.3,9.9-10.6,14.1c-7,6.6-15.1,10.7-24.2,12.7
	c-6.1,2.1-12.1,2.4-18.5,2.3c-8.5,0.2-17-1.3-25.6-3c-8.4-1.9-16.4-4.5-24-8.3c-7.6-3.7-14.7-8.1-21.2-13.5
	c-7-5.8-13.1-12.3-17.8-20.1c-4.9-7.9-7.6-16.3-7.4-25.6c0.2-9.3,3.7-17.2,10.5-23.6c6.2-5.9,13.6-9.3,21.6-11.8
	c7.2-2.2,14.8-3.1,22.3-3.6c11.1-0.6,22.1,0.3,33.2,2c16.1,2.6,31.5,6.6,46.4,12.8c5.5,2.3,10.9,4.8,16.1,7.8
	c4.1,2.6,7.6,5.7,9.4,10.4c0.6,1.4,1,2.8,1.2,4.3c0.5,4,2.6,4.2,5.5,3.6c6.9-1,13.8-1.6,20.8-1.5c6.4,0.1,12.8,0.7,19.1,1.5
	c0.9,0.2,1.9,0.2,2.7,0c1.2-0.1,2.1-0.7,2.3-1.9c0.2-1,0.5-2,0.7-3c1.3-6.1,4.9-10.2,10.1-13.3c10.9-6.3,22.5-10.9,34.6-14.4
	c9.9-2.6,19.7-5,29.6-6.9c11.1-2,22.1-2.4,33.4-1.6c8.7,0.7,17.1,2.4,25.2,5.9c8,3.4,15,8.3,20.6,15c4.5,5.2,6.5,11.5,6.7,18.5
	C442.3,248.4,439.6,255.2,436,261.8z"/>
</svg>
