<?xml version="1.0" encoding="utf-8"?>
<!-- Generator: Adobe Illustrator 25.2.2, SVG Export Plug-In . SVG Version: 6.00 Build 0)  -->
<svg version="1.1" id="Capa_1" xmlns="http://www.w3.org/2000/svg" xmlns:xlink="http://www.w3.org/1999/xlink" x="0px" y="0px"
	 viewBox="0 0 512 512" style="enable-background:new 0 0 512 512;" xml:space="preserve">
<style type="text/css">
	.st0{fill:url(#SVGID_1_);}
	.st1{fill:url(#SVGID_2_);}
</style>
<g>
	<g>
		<linearGradient id="SVGID_1_" gradientUnits="userSpaceOnUse" x1="386.7764" y1="54.3663" x2="114.2397" y2="487.8034">
			<stop  offset="0" style="stop-color:#7BFD6B"/>
			<stop  offset="1" style="stop-color:#0C836F"/>
		</linearGradient>
		<path class="st0" d="M256,5.3C114.6,5.3,0,120.4,0,262.4c0,113.5,73.3,209.9,175.1,243.9c12.8,2.4,17.5-5.6,17.5-12.4
			c0-6.1-0.2-22.3-0.4-43.7C121,465.6,106,415.7,106,415.7c-11.6-29.7-28.4-37.6-28.4-37.6c-23.3-15.9,1.7-15.6,1.7-15.6
			c25.7,1.8,39.2,26.5,39.2,26.5c22.8,39.3,59.9,27.9,74.5,21.3c2.3-16.6,8.9-27.9,16.3-34.4c-56.8-6.5-116.6-28.5-116.6-127
			c0-28.1,10-51,26.4-69c-2.7-6.5-11.4-32.6,2.5-68c0,0,21.5-6.9,70.4,26.3c20.4-5.7,42.3-8.5,64.1-8.6c21.7,0.1,43.6,2.9,64.1,8.7
			C369,105,390.5,112,390.5,112c14,35.4,5.2,61.5,2.6,68c16.4,18,26.3,40.9,26.3,69c0,98.7-59.8,120.4-116.9,126.8
			c9.2,7.9,17.4,23.6,17.4,47.6c0,34.4-0.3,62.1-0.3,70.5c0,6.9,4.6,14.9,17.6,12.4C438.7,472.1,512,375.9,512,262.4
			C512,120.4,397.4,5.3,256,5.3z"/>
	</g>
</g>
<g>
	<g>
		<linearGradient id="SVGID_2_" gradientUnits="userSpaceOnUse" x1="318.2876" y1="161.4505" x2="155.2488" y2="404.0908">
			<stop  offset="0" style="stop-color:#7BFD6B"/>
			<stop  offset="1" style="stop-color:#0C836F"/>
		</linearGradient>
		<path class="st1" d="M185.8,307c-6.7,0.2-13.4-1-20.1-2.4c-6.6-1.4-12.9-3.5-18.9-6.5c-5.9-2.9-11.5-6.4-16.6-10.6
			c-5.5-4.5-10.3-9.7-14-15.8c-3.8-6.2-5.9-12.8-5.8-20.1c0.1-7.3,2.9-13.5,8.2-18.6c4.8-4.6,10.7-7.3,17-9.2
			c5.7-1.7,11.6-2.5,17.5-2.8c8.7-0.5,17.4,0.2,26.1,1.5c12.6,2,24.8,5.2,36.5,10.1c4.3,1.8,8.6,3.7,12.6,6.1c3.2,2,5.9,4.5,7.4,8.1
			c0.5,1.1,0.8,2.2,0.9,3.4c0.4,3.1,2,3.3,4.3,2.9c5.4-0.9,10.9-1.3,16.4-1.2c5,0.1,10,0.5,15,1.2c0.7,0.1,1.4,0.1,2.1,0
			c0.9-0.1,1.6-0.6,1.8-1.5c0.2-0.8,0.4-1.6,0.6-2.4c1-4.7,3.8-8,7.9-10.4c8.6-4.9,17.7-8.6,27.2-11.3c7.7-2.1,15.4-4,23.2-5.4
			c8.7-1.6,17.4-2,26.2-1.3c6.9,0.5,13.5,1.9,19.9,4.6c6.3,2.7,11.8,6.5,16.2,11.8c3.5,4.2,5.1,9.1,5.3,14.6
			c0.2,6-1.9,11.3-4.7,16.5c-3.7,6.9-8.8,12.7-14.7,17.9c-9.7,8.4-20.9,14.2-33.2,17.7c-8.6,2.5-17.4,3.2-26.4,2.9
			c-7.5-0.2-14.8-1.7-21.4-5.5c-7.3-4.1-12.9-10-17.1-17.2c-3.9-6.5-6.3-13.6-8.1-20.9c-0.2-0.6-0.3-1.2-0.5-1.8
			c-0.8-2.4-2.6-3.7-5.1-4c-2.1-0.2-4.2-0.5-6.4-0.6c-3.9-0.2-7.8-0.5-11.7-0.4c-3.8,0.1-7.7,0.3-11.5,0.9c-3.7,0.6-5.2,2-5.8,5.7
			c-1.3,7.7-4.4,14.6-8.4,21.1c-2.4,4-5,7.8-8.4,11.1c-5.4,5.2-11.8,8.4-19,10C195.6,306.8,190.8,307.1,185.8,307z"/>
	</g>
</g>
</svg>
