<?xml version="1.0" encoding="utf-8"?>
<!-- Generator: Adobe Illustrator 25.2.2, SVG Export Plug-In . SVG Version: 6.00 Build 0)  -->
<svg version="1.1" id="Capa_1" xmlns="http://www.w3.org/2000/svg" xmlns:xlink="http://www.w3.org/1999/xlink" x="0px" y="0px"
	 viewBox="0 0 512 512" style="enable-background:new 0 0 512 512;" xml:space="preserve">
<style type="text/css">
	.st0{fill:url(#SVGID_1_);}
	.st1{fill:url(#SVGID_2_);}
</style>
<g>
	<g>
		<linearGradient id="SVGID_1_" gradientUnits="userSpaceOnUse" x1="368.5312" y1="102.4431" x2="58.2016" y2="402.4919">
			<stop  offset="0" style="stop-color:#7BFD6B"/>
			<stop  offset="1" style="stop-color:#0C836F"/>
		</linearGradient>
		<path class="st0" d="M461.1,60.9L260.3,0.6c-2.8-0.8-5.8-0.8-8.6,0L50.9,60.9c-6.3,1.9-10.7,7.7-10.7,14.4v220.9
			c0,28.7,11.6,58.1,34.6,87.4c17.5,22.4,41.8,44.8,72,66.7c50.9,36.8,101,59.4,103.1,60.4c1.9,0.9,4,1.3,6.1,1.3
			c2.1,0,4.2-0.4,6.1-1.3c2.1-0.9,52.2-23.5,103.1-60.4c30.3-21.9,54.5-44.4,72-66.7c22.9-29.3,34.6-58.7,34.6-87.4V75.2
			C471.8,68.6,467.5,62.8,461.1,60.9z M441.8,296.2c0,50.9-51,98.5-93.8,129.6c-38.4,27.8-77.3,47.6-92,54.7
			c-14.7-7.1-53.6-26.8-92-54.7c-42.8-31-93.8-78.7-93.8-129.6V86.4L256,30.7l185.8,55.8V296.2z"/>
	</g>
</g>
<g>
	<g>
		<linearGradient id="SVGID_2_" gradientUnits="userSpaceOnUse" x1="328.8669" y1="136.0175" x2="138.2031" y2="419.7704">
			<stop  offset="0" style="stop-color:#7BFD6B"/>
			<stop  offset="1" style="stop-color:#0C836F"/>
		</linearGradient>
		<path class="st1" d="M174,306.3c-7.8,0.3-15.7-1.1-23.5-2.8c-7.7-1.6-15.1-4.1-22.1-7.6c-7-3.4-13.4-7.5-19.4-12.4
			c-6.4-5.3-12-11.3-16.4-18.5c-4.4-7.2-6.9-15-6.7-23.5c0.1-8.6,3.4-15.8,9.6-21.7c5.7-5.4,12.5-8.6,19.8-10.7
			c6.7-2,13.5-2.9,20.5-3.3c10.2-0.6,20.4,0.2,30.5,1.8c14.7,2.3,29,6.1,42.7,11.9c5,2.1,10.1,4.3,14.7,7.2c3.8,2.3,6.9,5.2,8.7,9.4
			c0.5,1.3,0.9,2.6,1.1,4c0.5,3.6,2.3,3.9,5,3.4c6.4-1,12.8-1.5,19.2-1.4c5.9,0.1,11.7,0.6,17.5,1.4c0.8,0.1,1.6,0.1,2.4,0.1
			c1.1-0.1,1.8-0.7,2.1-1.7c0.3-0.9,0.5-1.9,0.7-2.8c1.2-5.5,4.4-9.4,9.2-12.2c10-5.8,20.6-10.1,31.8-13.2c9-2.5,18-4.7,27.1-6.4
			c10.2-1.9,20.4-2.3,30.7-1.6c8,0.6,15.8,2.2,23.3,5.4c7.3,3.2,13.8,7.6,18.9,13.8c4,4.9,6,10.7,6.2,17.1c0.3,7-2.2,13.3-5.4,19.3
			c-4.3,8.1-10.3,14.9-17.2,20.9c-11.4,9.9-24.4,16.6-38.9,20.7c-10.1,2.9-20.4,3.7-30.8,3.4c-8.8-0.2-17.3-2-25-6.4
			c-8.6-4.8-15-11.7-20-20.1c-4.5-7.6-7.4-15.9-9.4-24.5c-0.2-0.7-0.4-1.4-0.6-2.1c-1-2.8-3-4.4-5.9-4.7c-2.5-0.3-4.9-0.5-7.4-0.7
			c-4.6-0.2-9.1-0.6-13.7-0.5c-4.5,0.1-9,0.3-13.4,1.1c-4.3,0.7-6.1,2.4-6.8,6.7c-1.5,8.9-5.2,17-9.9,24.7c-2.8,4.6-5.8,9.2-9.8,13
			c-6.3,6-13.8,9.8-22.2,11.7C185.4,306,179.8,306.4,174,306.3z"/>
	</g>
</g>
</svg>
